<svg width="100" height="60" viewBox="0 0 100 60" fill="none" xmlns="http://www.w3.org/2000/svg">
  <path d="M78.3333 37.5C78.3333 45.0604 72.0604 51.3333 64.5 51.3333H35.5C27.9396 51.3333 21.6667 45.0604 21.6667 37.5C21.6667 32.8917 24.2292 28.875 28.1042 27.0208C29.0917 20.4375 34.8333 15.6667 41.3333 15.6667C46.3333 15.6667 50.7708 18.5833 52.7708 23.0833C55.3333 22.6042 58.0417 23.0208 60.3958 24.3125C64.2708 26.1667 66.8333 30.1833 66.8333 34.7917C67.7708 34.8958 68.6667 35.0625 69.5625 35.3125C72.7708 36.2083 75.3958 38.6042 76.7708 41.7292C77.625 39.9375 78.3333 38.7708 78.3333 37.5Z" fill="#D3D3D3"/>
</svg>
