<svg width="100" height="100" viewBox="0 0 100 100" xmlns="http://www.w3.org/2000/svg">
  <path d="M50,10 C30,10 10,30 10,50 C10,70 30,90 50,90 C70,90 90,70 90,50 C90,30 70,10 50,10"
        fill="none" stroke="#0000FF" stroke-width="2"/>
  <path d="M35,25 Q25,50 35,75 Q45,50 35,25" fill="none" stroke="#0000FF" stroke-width="2"/>
  <path d="M65,25 Q75,50 65,75 Q55,50 65,25" fill="none" stroke="#0000FF" stroke-width="2"/>
  <path d="M30,40 Q50,20 70,40 Q50,60 30,40" fill="none" stroke="#0000FF" stroke-width="2"/>
  <path d="M30,60 Q50,40 70,60 Q50,80 30,60" fill="none" stroke="#0000FF" stroke-width="2"/>
  <circle cx="50" cy="50" r="40" fill="none" stroke="#0000FF" stroke-width="2"/>
  <path d="M50,10 Q60,30 50,50 Q40,30 50,10" fill="none" stroke="#FF0000" stroke-width="2"/>
  <path d="M50,50 Q60,70 50,90 Q40,70 50,50" fill="none" stroke="#FF0000" stroke-width="2"/>
</svg>
