<svg width="40" height="40" viewBox="0 0 40 40" fill="none" xmlns="http://www.w3.org/2000/svg">
  <path d="M20 28.3333C23.6819 28.3333 26.6667 25.3485 26.6667 21.6667C26.6667 17.9848 23.6819 15 20 15C16.3181 15 13.3333 17.9848 13.3333 21.6667C13.3333 25.3485 16.3181 28.3333 20 28.3333Z" stroke="#4A5568" stroke-width="2.5" stroke-linecap="round" stroke-linejoin="round"/>
  <path d="M33.2217 26.111L31.105 29.7227C30.7958 30.2833 30.2225 30.6667 29.5833 30.6667H23.75C23.1108 30.6667 22.5375 30.2833 22.2283 29.7227L20.1117 26.111M6.77825 26.111L8.89492 29.7227C9.20408 30.2833 9.77742 30.6667 10.4166 30.6667H16.2499C16.8891 30.6667 17.4624 30.2833 17.7716 29.7227L19.8883 26.111M20.1117 26.111V21.6667M19.8883 26.111V21.6667M19.8883 21.6667L17.7716 18.055C17.4624 17.4943 16.8891 17.111 16.2499 17.111H10.4166C9.77742 17.111 9.20408 17.4943 8.89492 18.055L6.77825 21.6667M19.8883 21.6667L22.2283 18.055C22.5375 17.4943 23.1108 17.111 23.75 17.111H29.5833C30.2225 17.111 30.7958 17.4943 31.105 18.055L33.2217 21.6667" stroke="#4A5568" stroke-width="2.5" stroke-linecap="round" stroke-linejoin="round"/>
</svg>
